<?xml version="1.0" standalone="no"?><!DOCTYPE svg PUBLIC "-//W3C//DTD SVG 1.1//EN" "http://www.w3.org/Graphics/SVG/1.1/DTD/svg11.dtd"><svg class="icon" width="200px" height="200.00px" viewBox="0 0 1024 1024" version="1.1" xmlns="http://www.w3.org/2000/svg"><path d="M960.19 656.71H63.92v-521a68.44 68.44 0 0 1 63.89-72.1h768.37a68.44 68.44 0 0 1 63.9 72.1v521zM344.88 524.77l35.67 35.78 36-35.56-36-36 17.83-17.83 36 35.67 35.89-35.67-35.89-35.67 58.1-57.87a126.36 126.36 0 1 0-35.89-35.89l-111.7 111.6-35.45 35.88 35.45 36z m217.61-176.69a76.1 76.1 0 1 1 75.6-76.59v0.66a76.33 76.33 0 0 1-75.6 75.93z"  /><path d="M63.91 656.38v112a64 64 0 0 0 64 64h345.15v64.42H351.84a31.76 31.76 0 1 0-0.45 63.52h321a31.76 31.76 0 0 0 0.45-63.52H551v-64.36h345.15a64 64 0 0 0 64-64v-112z" opacity=".4" /></svg>